<svg width="276" height="104" viewBox="0 0 276 104" fill="none" xmlns="http://www.w3.org/2000/svg">
<path d="M153.394 63.4638C152.56 61.6218 152.846 60.3898 154.287 59.5764C158.536 57.238 162.097 53.7902 164.869 49.3048C165.056 49.0058 165.238 48.7068 165.414 48.3838C167.834 44.1077 169.061 39.2097 169.061 33.8032C169.085 29.8559 168.326 25.9433 166.828 22.2937C165.415 18.8068 163.315 15.6426 160.655 12.9907C157.994 10.3387 154.828 8.25378 151.346 6.86086C147.68 5.36773 143.758 4.61185 139.802 4.63609H108.683C107.161 4.63609 105.943 5.08164 105.059 5.96378C104.175 6.84591 103.728 8.05697 103.728 9.57304V94.4251C103.728 95.9412 104.178 97.1582 105.059 98.0344C105.94 98.9105 107.158 99.362 108.683 99.362H113.997C115.516 99.362 116.736 98.9165 117.618 98.0344C118.499 97.1522 118.952 95.9412 118.952 94.4251V64.8543C118.952 64.0589 119.276 63.7329 120.071 63.7329H134.499C135.857 63.7329 136.78 64.3489 137.331 65.6258L155.252 95.056C156.532 97.9237 158.545 99.377 161.233 99.377H168.221C169.886 99.377 171.074 98.7789 171.756 97.5828C172.437 96.3867 172.381 94.9903 171.619 93.3576L153.394 63.4638ZM149.41 45.0257C148.036 46.3944 146.402 47.4713 144.605 48.1925C142.794 48.9279 140.859 49.3056 138.906 49.3048H120.226C119.428 49.3048 119.103 48.9789 119.103 48.1835V20.1676C119.103 19.3722 119.428 19.0462 120.226 19.0462H138.906C140.858 19.0436 142.794 19.3941 144.623 20.0809C146.415 20.7376 148.057 21.748 149.454 23.0524C150.851 24.3569 151.974 25.929 152.757 27.6762C153.614 29.6006 154.042 31.6894 154.013 33.7973C154.033 35.9556 153.604 38.0944 152.754 40.0768C152.423 40.8322 152.039 41.5627 151.605 42.2627C150.982 43.2657 150.245 44.1928 149.41 45.0257ZM243.707 84.9429H202.241C201.446 84.9429 201.122 84.62 201.122 83.8246V9.56706C201.122 8.07192 200.672 6.83993 199.788 5.95779C198.903 5.07566 197.683 4.63011 196.167 4.63011H190.85C189.331 4.63011 188.113 5.07566 187.229 5.95779C186.345 6.83993 185.898 8.05099 185.898 9.56706V94.4251C185.898 95.9442 186.348 97.1582 187.229 98.0344C188.11 98.9105 189.313 99.362 190.85 99.362H243.707C245.229 99.362 246.446 98.9165 247.331 98.0344C248.215 97.1522 248.662 95.9412 248.662 94.4251V89.8829C248.662 88.3698 248.212 87.1557 247.328 86.2706C246.443 85.3855 245.226 84.9429 243.707 84.9429ZM91.5327 79.8535L84.6431 74.1929C83.8262 73.5278 82.7823 73.2107 81.7353 73.3097C80.6883 73.4086 79.7216 73.9157 79.0426 74.7222C75.7293 78.6362 71.6092 81.7809 66.9672 83.939C62.3252 86.0971 57.272 87.217 52.1567 87.2215C32.7263 87.2215 16.9193 71.3731 16.9193 52.011C16.9193 33.4354 31.4579 17.8142 49.7867 16.5673C50.5698 16.5135 51.3588 16.4836 52.1686 16.4836C55.5732 16.5037 58.9534 17.0627 62.1846 18.1402C65.0499 19.0896 67.8003 20.3584 70.3843 21.9229L48.6494 43.7519H33.6135C32.558 43.7487 31.5444 44.1664 30.7952 44.9132C30.0461 45.66 29.6226 46.6748 29.6179 47.7349V56.2363C29.6198 56.7613 29.7247 57.2808 29.9266 57.7651C30.1285 58.2494 30.4233 58.6891 30.7943 59.0589C31.1654 59.4288 31.6053 59.7216 32.089 59.9207C32.5728 60.1198 33.0908 60.2213 33.6135 60.2193H54.0116C55.0654 60.2202 56.0772 59.8045 56.8283 59.0621L90.976 25.2002C91.5686 24.6108 92.0223 23.8955 92.3039 23.107C92.6404 22.1783 92.7212 21.1756 92.5378 20.2047C92.3544 19.2337 91.9136 18.3304 91.2618 17.59C80.6087 5.50925 64.8762 -1.06636 48.2623 0.141708C35.6096 1.06814 23.729 6.60257 14.8524 15.7054C5.97573 24.8082 0.713926 36.8529 0.0553658 49.5769C-1.3053 79.3422 22.5912 104 52.1597 104C59.7552 104.009 67.2613 102.355 74.1553 99.1533C81.0493 95.9514 87.1654 91.2786 92.0776 85.4603C92.4122 85.0579 92.6638 84.5927 92.8176 84.0917C92.9715 83.5908 93.0247 83.0641 92.974 82.5423C92.9233 82.0205 92.7697 81.5141 92.5223 81.0525C92.2749 80.5909 91.9385 80.1833 91.5327 79.8535ZM274.666 5.94583C273.773 5.0637 272.564 4.61815 271.046 4.61815H265.731C264.21 4.61815 262.992 5.0637 262.11 5.94583C261.229 6.82796 260.777 8.03903 260.777 9.5551V94.4251C260.777 95.9442 261.226 97.1582 262.107 98.0344C262.989 98.9105 264.192 99.362 265.731 99.362H271.046C272.567 99.362 273.785 98.9165 274.669 98.0344C275.553 97.1522 276 95.9412 276 94.4251V9.56706C276 8.05398 275.55 6.84292 274.666 5.94583Z" fill="url(#paint0_linear_4012_10694)"/>
<defs>
<linearGradient id="paint0_linear_4012_10694" x1="276" y1="104" x2="-6.71904" y2="23.6381" gradientUnits="userSpaceOnUse">
<stop stop-color="#0097BC"/>
<stop offset="1" stop-color="#00B3BC"/>
</linearGradient>
</defs>
</svg>
